<svg width="360" height="72" viewBox="0 0 360 72" fill="none" xmlns="http://www.w3.org/2000/svg">
<g clip-path="url(#clip0_546_1181)">
<path d="M357.106 0H293.018C290.948 0 289.625 1.82664 289.625 4.0148V68.0042C289.625 70.1734 291.025 72 292.711 72H300.76C302.6 72 303.693 69.7548 303.693 68.1564V18.685C303.693 16.4017 304.977 14.9175 306.74 14.9175H356.896C358.774 14.9175 360 12.9197 360 10.6173V4.18605C360 1.97886 358.889 0 357.106 0Z" fill="#121218"/>
<path d="M342.655 28.7314L321.88 28.8076C319.715 28.8076 318.22 30.7484 318.22 32.556V39.5391C318.22 41.6892 319.906 43.7251 321.784 43.7251H341.87C343.94 43.7251 345.53 42.0126 345.53 39.9006V32.5179C345.53 30.5581 344.112 28.7314 342.655 28.7314Z" fill="#121218"/>
<path d="M243.13 0.399414H218.158C199.587 0.399414 184.811 16.8962 184.811 35.7335V36.0379C184.811 54.7039 199.05 71.9998 218.158 71.9998H243.13C261.702 71.9998 275.117 54.4565 275.117 36.0379V35.7335C275.117 17.1436 261.376 0.399414 243.13 0.399414ZM261.184 36.0379C261.184 48.9956 253.135 57.6151 242.843 57.6151H219.289C207.924 57.6151 199.74 48.2726 199.74 35.7335V35.41C199.74 22.6235 207.541 14.2895 218.656 14.2895H242.21C253.729 14.2895 261.184 23.6129 261.184 35.7335V36.0379Z" fill="#121218"/>
<path d="M137.741 0.399414H88.6775C86.5502 0.399414 85.6494 2.70174 85.6494 4.22394V67.3571C85.6494 69.4311 87.4318 71.9998 89.425 71.9998H95.9603C98.471 71.9998 99.3526 69.4692 99.3526 67.8519V19.1795C99.3526 16.8772 100.982 15.2409 102.745 15.2409H137.894C149.259 15.2409 157.596 26.1626 157.596 35.6573V35.8096C157.596 45.1521 150.466 57.4438 138.66 57.4438H117.56C114.953 57.4438 113.956 59.8223 113.956 61.9724V67.6045C113.956 69.7546 115.643 71.9998 117.406 71.9998H137.817C156.695 71.9998 170.436 54.5326 170.436 35.8096V35.41C170.436 16.5728 155.967 0.399414 137.741 0.399414Z" fill="#121218"/>
<path d="M23.4008 0.228271H4.04387C0.153322 0.228271 0 0.799096 0 6.90692V9.36146C0 14.0422 0.536627 15.0697 5.19378 15.0697H9.60179C13.8565 15.0697 13.8565 16.8963 13.8565 20.5877V24.1839C13.8565 28.9407 14.2398 29.5116 18.4178 29.5116H23.4008C28.1346 29.5116 27.6746 27.8562 27.6746 21.2346V7.3065C27.6746 1.75047 27.368 0.228271 23.4008 0.228271Z" fill="#121218"/>
<path d="M67.6151 0.228271H47.3383C43.5244 0.228271 41.9146 0.399519 41.9146 5.47986V23.4608C41.9146 28.8646 42.3745 29.3403 46.3992 29.3403H52.053C56.116 29.3403 56.8059 28.8646 56.8059 24.1839V20.1881C56.8059 16.0211 57.2659 14.9936 61.1948 14.9936H67.3085C72.119 14.9936 71.1224 13.3953 71.2757 9.15216V5.55597C71.2757 1.59825 71.1224 0.228271 67.6151 0.228271Z" fill="#121218"/>
<path d="M23.4008 42.5645H18.1878C14.2973 42.5645 13.8373 43.2114 13.8373 48.5391V50.9175C13.8373 54.8752 13.3773 56.1501 9.90843 56.1501H4.65716C0.459966 56.1501 0 56.5497 0 61.0021V66.2346C0 70.7632 0.536627 71.7716 5.19378 71.7716H22.7875C27.2913 71.7716 27.598 71.2008 27.598 66.6342V47.8921C27.598 43.6871 27.2913 42.5645 23.4008 42.5645Z" fill="#121218"/>
<path d="M67.3852 56.15H62.498C58.6841 56.15 57.5151 55.5792 57.5151 51.6215V47.7399C57.5151 43.9724 56.9018 42.7927 53.4329 42.7927H46.4567C43.3711 42.7927 41.9146 43.0401 41.9146 47.169V65.2832C41.9146 70.7631 42.2212 71.8477 45.8434 71.8477H66.8485C70.9691 71.8477 71.1224 71.2008 71.1224 66.4439V62.2388C71.1224 57.4819 70.9691 56.15 67.3852 56.15Z" fill="#121218"/>
<path d="M37.2574 28.2177H32.2361C28.6139 28.2177 27.4448 28.7885 27.4448 32.7462V37.3128C27.4448 41.5179 27.9815 42.7927 31.872 42.7927H37.1041C41.148 42.7927 41.9146 41.5179 41.9146 37.3128V32.7462C41.9146 29.15 40.7647 28.2177 37.2574 28.2177Z" fill="#121218"/>
</g>
<defs>
<clipPath id="clip0_546_1181">
<rect width="360" height="72" fill="white"/>
</clipPath>
</defs>
</svg>
